<svg xmlns="http://www.w3.org/2000/svg" xml:space="preserve" id="Слой_1" x="0" y="0" style="enable-background:new 0 0 431.05 184.32" version="1.1" viewBox="0 0 431.1 184.3"><style>.st0{fill:#fff80d}.st1{opacity:.61}.st2{fill:#300}</style><path d="M270.2 15c-17 80-31.8 112.6 3.7 112.1 18.3-2.6 16.4-23.3 19.9-37 4.3-22.5 9-43.5 14.3-66 4.2-26-31.2-31.8-37.9-9z" class="st0"/><path d="M290.4 39.4c4-.2 8-.2 12 .3L297 39c3.4.5 6.8 1.3 10 2.6l-4.7-2c2.2 1 4.2 2.1 6 3.5l-3.9-3a22 22 0 0 1 3.8 3.7l-3-3.9c1 1.4 1.9 2.9 2.5 4.5l-2-4.7c.8 1.7 1.3 3.5 1.5 5.4l-.7-5.2c.3 2.1.2 4.3 0 6.4l.7-5.2c-.4 2.6-1 5.1-2 7.5l1.9-4.7a35.2 35.2 0 0 1-4.5 7.7l3-4c-2 2.6-4.2 4.9-6.7 6.8l4-3c-2.6 2-5.4 3.5-8.3 4.8l4.6-2c-3 1.3-6.3 2.2-9.5 2.6l5.1-.7c-3.6.5-7.2.5-10.8 0l5.2.7c-49.5-7.5-19.2 56.8 1.8 71.4 20.8 17.5 50.4 17 74.4 6.3 32-12.9 70.6-49.2 65-80.6-4-28.9-47.2-33.7-66.2-22.4-18 14.7-1.8 40.5 19.4 33.8l-5.2.7c5.8-.8 11.7-1.2 17.6-.4l-5.2-.7c2.4.3 4.8.9 7 1.8l-4.7-2a17 17 0 0 1 3.8 2.1l-4-3c.9.7 1.6 1.4 2.3 2.3l-3-4c.6.8 1 1.7 1.4 2.6l-2-4.7c.5 1.1.8 2.2 1 3.4l-.7-5.2a18 18 0 0 1 0 4.7l.6-5.2c-.3 2.6-1.1 5.2-2.2 7.7l2-4.7c-2 4.7-4.8 9-8 13.1l3.1-4a107 107 0 0 1-19 18.7l4-3a110.8 110.8 0 0 1-24.1 14.2l4.7-2a77.1 77.1 0 0 1-19.5 5.5l5.2-.7c-4.8.7-9.6.8-14.3.1l5.1.7c-3.8-.5-7.6-1.5-11.2-3l4.7 2a43.2 43.2 0 0 1-9.4-5.6l4 3.1a49.6 49.6 0 0 1-8.9-9l3 4a71 71 0 0 1-8.9-15.6l2 4.7a107 107 0 0 1-4.7-14l-24 24c51 11.6 90-45 57.8-79.7A52.6 52.6 0 0 0 299 .4c-35.4-5.1-36.3 37.5-8.6 39zM101.4 71.2c12-3.1 24.3-5.2 36.6-6.8l-5.2.7c10.3-1.4 20.7-2.5 31.1-2.8L150.1 29c-20.3 21.1-31.6 49-49.4 72.4l3-4c-15.8 14.4-15.4 36.2 7 40 12.3-.4 24-6.6 36.2-9.3 11.3-4.3 25.6-4.1 32.5-15 10-21-11-35.4-29.5-26.5L107 99l19 32.6c18.7-20.7 29.8-47.2 46.8-69.7l-3 4c15-14.6 21.9-33.5-1.9-42.3-31.2-.2-75.5 6.7-84.5 14-16.2 14.4-.8 38.6 18 33.5z" class="st0"/><path d="m41 103.6 6-4.7-4 3c7.4-5.6 15.3-11.4 24.2-15.3l-4.6 2c2.2-1 4.5-1.8 7-2.1l-5.2.7c1-.2 2.2-.2 3.3 0l-5.2-.8c.8.1 1.5.3 2.2.6l-4.6-2 1.5 1-4-3.1c.6.4 1 .8 1.4 1.3l-3-4c.5.8.9 1.5 1.2 2.3l-2-4.6c.7 1.4 1 3 1.2 4.5l-.7-5.2a58 58 0 0 1-.5 14.5l.7-5.2c-2.7 20-9.7 39.9-11.3 60.6-2.2 21.6 12.4 37.4 33.5 32 15-5.5 34.9-18.8 36.7-31 .4-27-26.4-27-40.4-10.6l4-3c-4 3-8.3 6.2-13 8.2l4.6-2c-1.3.6-2.6 1-4 1.2l5.1-.7h-2l5.2.7c-.5 0-1-.1-1.4-.3l4.7 2-1-.6 4 3-1-.9 3 4-.8-1.6 2 4.7c-.5-1-.7-2.1-.8-3.2l.7 5.2a43 43 0 0 1 .4-11.3l-.7 5.1C86.5 126.3 94 104.7 95 82.1 90.5 10 5.9 73.5 7.9 87.2c-2.5 19 20.5 29 33.1 16.4z" class="st0"/><path d="M64.7 93.8c-93.3 36.3-69.9 97-28 90 18.1-3 37.7-18.1 45-30.9 6.5-14.3-7.7-30.4-22.7-26.3-8.6 1.9-12.3 9.6-19.6 14.6l4-3.1c-4 3-8.1 5.7-12.7 7.6l4.7-2c-2.6 1.1-5.2 2-8 2.3l5.3-.7c-1.6.2-3.3.2-4.8 0l5.1.7c-1-.1-2-.4-3-.8l4.6 2c-.7-.3-1.4-.7-2-1.2l4 3c-.6-.4-1-.8-1.5-1.4l3 4-1-1.8 2 4.6c-.4-.8-.6-1.6-.7-2.4l.7 5.2c-.1-1-.1-2.2 0-3.2l-.7 5.1c.3-1.6.7-3.2 1.4-4.7l-2 4.7c1.1-2.6 2.6-5 4.4-7.3l-3 4c3.2-4.3 7.2-8 11.5-11.3l-4 3c9.3-7 19.7-12.5 30.4-17l-4.6 2C100 125 91 88.1 64.7 93.7z" class="st0"/><g class="st1"><path d="m36 96.8 6-4.7-2.5 1.9c7.4-5.7 15.3-11.5 24.2-15.5L61 79.8c2.2-1 4.5-1.8 7-2.1l-3.2.4c1-.1 2.2-.2 3.3 0l-3.2-.5c.8.1 1.5.3 2.2.6L64.1 77c.6.2 1.1.5 1.6 1l-2.4-2 1.3 1.4-1.9-2.5c.5.7 1 1.5 1.3 2.3l-1.2-2.9c.6 1.5 1 3 1.1 4.5l-.4-3.2a58 58 0 0 1-.5 14.5l.5-3.2c-1.7 12.2-5 24.4-7.6 36.8-15.8 58.4 23.2 58.5 51 24.2a12 12 0 0 0-12.5-16c-6 .8-9.2 5.7-14.4 9.3l2.4-1.8c-4 3-8.2 6.2-13 8.2l2.9-1.2c-1.3.5-2.7 1-4 1.2l3.1-.5c-.6.1-1.3.2-2 0l3.2.5c-.5 0-1-.2-1.4-.4l2.9 1.3-1-.6 2.4 1.8-.9-.8 1.9 2.4c-.4-.5-.7-1-.9-1.6l1.2 3c-.4-1.1-.6-2.2-.8-3.3l.4 3.2a43 43 0 0 1 .4-11.3l-.4 3.2c3-22.1 11.5-43.9 11.3-66.8-5.3-46.1-50.5-13.7-68.6 2-10.9 12 5.5 27.6 17 17z" class="st2"/><path d="M67 99.5c-81.8 32.5-65.2 81-31.2 75.4a63.6 63.6 0 0 0 39.6-27.5c3-8.7-5.8-17.8-15-14.9C54 134.8 51 141 45 144.9l2.5-1.9c-4 3-8.2 5.7-12.7 7.6l2.8-1.2c-2.5 1-5.1 1.9-7.9 2.3l3.2-.5c-1.6.2-3.2.3-4.8 0l3.2.5c-1-.1-2-.4-3-.8L31 152c-.7-.3-1.4-.7-2-1.2l2.4 1.9-1.4-1.4 1.9 2.4c-.5-.5-.8-1.2-1.1-1.8l1.2 2.9-.6-2.4.4 3.2v-3.3l-.4 3.2c.2-1.6.7-3.2 1.3-4.7l-1.2 2.8c1.1-2.6 2.7-5 4.4-7.2l-1.9 2.4c3.3-4.3 7.3-8 11.6-11.3l-2.4 2c9.2-7.2 19.7-12.6 30.4-17.1l-3 1.2c17.9-4.2 12.9-27.8-3.8-24.3z" class="st2"/></g><path d="M99 64.2c12-3 24.4-5.1 36.7-6.8l-3.2.4c10.3-1.3 20.6-2.4 31-2.7L155 34.6c-19.8 20.8-30.8 48-48.2 70.9l1.9-2.4c-9.6 9.4-14 21.7.6 26.8 19-1.5 37.4-10.6 56-14.9C181 109.7 174 88.4 159 92l-50.5 14.7 11.6 20.1c18.3-20.5 29-46.3 45.8-68.2L164 61c10.4-10.6 18.7-23.2 1.7-29.6-25 0-49.7 4.3-74.1 10.1-15 6.6-6.3 26.2 7.4 22.8z" style="opacity:.61;fill:#300"/><path d="m202.5 88.1 6-4.6c2.3-2 10.1-8.4 15.5-10.4 2.3-1 4.6-1.8 7-2.1 0 0-2.3 1.1-5.1.7-3.6-.6-6-3.4-6.8-4.3-1-1.3-1.6-2.6-1.7-2.6l1.3 2.3-2-4.7c.6 1.4 1 3 1.2 4.5l-.7-5.2a58 58 0 0 1-.5 14.5l.7-5.2c-2.7 20-9.7 39.9-11.3 60.6-2.2 21.6 12.4 37.5 33.5 32 15-5.5 34.8-18.8 36.6-31 .4-26.9-26.3-27-40.3-10.6l4-3c-4 3-8.3 6.2-13 8.2l4.6-2c-1.3.6-2.7 1-4 1.2l5.1-.7h-2l5.2.8-1.4-.4 4.7 2-1-.6 3.9 3-.9-.8 3 3.9-.8-1.6 2 4.7c-.5-1-.7-2-.9-3.2l.7 5.2a43 43 0 0 1 .4-11.3l-.7 5.2c3.2-21.8 10.8-43.4 11.7-66-4.5-72.2-89.1-8.6-87.2 5.1-2.4 19 20.6 29 33.2 16.4z" class="st0"/><path d="M226.1 78.3c-93.2 36.3-69.8 97-28 90 18.2-3 37.8-18.1 45-30.9 6.6-14.3-7.7-30.4-22.6-26.3-8.6 2-12.3 9.6-19.6 14.6l4-3c-4 3-8.2 5.6-12.7 7.5l4.6-2c-2.5 1.1-5.1 2-7.9 2.3l5.2-.7c-1.6.2-3.2.3-4.8 0l5.2.7c-1-.1-2-.4-3-.8l4.6 2c-.7-.3-1.4-.7-2-1.2l4 3c-.6-.4-1.1-.8-1.5-1.4l3 4c-.4-.6-.8-1.2-1-1.8l2 4.6c-.4-.7-.6-1.5-.7-2.4l.7 5.2c-.2-1-.1-2.1 0-3.2l-.7 5.1c.2-1.6.7-3.2 1.4-4.7l-2 4.7c1-2.6 2.6-5 4.4-7.3l-3.1 4c3.3-4.3 7.3-8 11.6-11.3l-4 3c9.3-7 19.7-12.5 30.4-17l-4.6 2c27.5-7.3 18.5-44.3-7.9-38.7z" class="st0"/><g class="st1"><path d="m197.5 81.3 6-4.7-2.5 1.9c7.4-5.7 15.3-11.5 24.2-15.4l-2.8 1.2c2.2-1 4.5-1.8 7-2.1l-3.2.4c1-.1 2.2-.2 3.3 0l-3.2-.5c.8.1 1.5.3 2.2.6l-2.9-1.2 1.6 1-2.5-2 1.4 1.4-1.9-2.4c.5.6 1 1.4 1.3 2.2l-1.2-2.9c.6 1.5 1 3 1.1 4.6l-.4-3.2a58 58 0 0 1-.5 14.4l.4-3.1c-1.6 12.1-4.9 24.3-7.5 36.7-15.8 58.4 23.1 58.5 51 24.2a12 12 0 0 0-12.5-16c-6 .8-9.3 5.7-14.4 9.3l2.4-1.8c-4 3-8.3 6.2-13 8.2l2.9-1.2c-1.3.5-2.7 1-4 1.2l3.1-.4h-2l3.2.4c-.5 0-1-.2-1.4-.3l2.9 1.2-1-.6 2.4 1.9-.9-1 1.9 2.5-1-1.6 1.3 3c-.4-1-.7-2.2-.8-3.3l.4 3.2a43 43 0 0 1 .4-11.3l-.4 3.2c3-22.1 11.5-43.9 11.3-66.8-5.3-46.1-50.5-13.7-68.7 2.1-10.8 12 5.6 27.5 17 17z" class="st2"/><path d="M228.4 84c-81.7 32.5-65.1 81-31.1 75.4a63.6 63.6 0 0 0 39.6-27.5c3-8.7-5.8-17.8-15-14.9-6.4 2.3-9.4 8.5-15.4 12.4l2.5-1.9c-4 3-8.2 5.7-12.7 7.7l2.8-1.3c-2.5 1-5.1 2-7.9 2.3l3.2-.4c-1.6.2-3.2.2-4.8 0l3.2.4c-1-.1-2-.4-3-.8l2.8 1.2c-.7-.3-1.4-.7-2-1.2l2.4 2-1.4-1.5 1.9 2.4c-.5-.5-.8-1.2-1.1-1.8l1.2 2.9-.6-2.4c0 1 .2 2.1.4 3.2-.2-1.1-.1-2.2 0-3.3l-.4 3.2c.2-1.6.7-3.2 1.3-4.7l-1.2 2.9c1.1-2.7 2.7-5 4.4-7.3l-1.9 2.4c3.3-4.3 7.3-8 11.6-11.3l-2.4 2c9.2-7.2 19.6-12.6 30.3-17.1l-2.8 1.2C250 104 245 80.5 228.4 84z" class="st2"/></g><g class="st1"><path d="M277.5 12c-17.3 79.7-28.4 106.2-2.9 102.3 10.4-3.5 8.2-16.2 10.8-25 2.9-15.4 6-30.3 9.4-45.6 1.8-9.7 5-18.8 6.2-28.8C300.5.4 281-.4 277.5 12z" class="st2"/><path d="M290.4 31.9c4-.2 8-.2 12 .3l-3.3-.4c3.4.5 6.8 1.3 10 2.6l-2.9-1.2c2.2.9 4.2 2 6 3.5l-2.4-2a22 22 0 0 1 3.8 3.8l-1.9-2.4c1 1.4 2 2.9 2.6 4.5l-1.2-2.9c.7 1.7 1.2 3.6 1.4 5.4l-.4-3.2c.3 2.2.2 4.3 0 6.4l.4-3.2c-.4 2.6-1 5-2 7.5l1.1-2.9a35.2 35.2 0 0 1-4.4 7.7L311 53c-2 2.5-4.2 4.8-6.7 6.7l2.4-1.9c-2.5 2-5.3 3.6-8.3 4.9l3-1.2c-3.2 1.2-6.4 2.1-9.7 2.6l3.2-.5c-3.6.5-7.2.5-10.8 0l3.2.4c-31.2-5.4-12.7 31.9-4.3 44.4a58 58 0 0 0 27.4 22.5c40.5 14.8 87.6-18.5 106-48 29.2-52.3-37.3-55.7-49.3-43.9-8.5 10.4 2 23.1 14.6 19l-3.2.5c5.8-.8 11.8-1.2 17.6-.4l-3.2-.4c2.4.3 4.8.8 7 1.8l-2.9-1.2a17 17 0 0 1 3.8 2c-.9-.5-1.7-1.2-2.5-1.8.9.7 1.7 1.4 2.3 2.3l-1.8-2.4c.6.8 1 1.6 1.4 2.5L399 58c.5 1.1.8 2.3 1 3.4l-.5-3.2a18 18 0 0 1 0 4.7l.4-3.2c-.4 2.6-1.2 5.2-2.2 7.7l1.2-2.9c-2 4.7-4.8 9-8 13.1l2-2.4a107 107 0 0 1-19 18.6l2.4-1.8a110.8 110.8 0 0 1-24.1 14.2l2.9-1.2a77.1 77.1 0 0 1-19.5 5.5l3.2-.5c-4.7.7-9.6.8-14.3.1l3.2.5c-3.9-.6-7.6-1.6-11.2-3l2.8 1.1a43.2 43.2 0 0 1-9.4-5.5l2.4 1.9a49.6 49.6 0 0 1-8.8-9l2 2.5a71 71 0 0 1-9-15.6l1.2 2.9a107 107 0 0 1-4.7-14l-14.8 14.8c38.2 9.1 74.3-30.3 54.4-62.5-10-14.7-32.6-19.5-47.8-15-11.4 5.9-6.2 22.8 5.6 22.7z" class="st2"/></g><path d="M37.4 85.5c2.3 0 4.6-2 4.5-4.5-.1-2.5-2-4.5-4.5-4.5-2.4 0-4.6 2-4.5 4.5 0 2.4 2 4.5 4.5 4.5zM51.7 75.7c2.4 0 4.6-2.1 4.5-4.5 0-2.5-2-4.5-4.5-4.5-2.3 0-4.6 2-4.5 4.5.1 2.4 2 4.5 4.5 4.5zM133.7 49.7c2.4 0 4.7-2.1 4.5-4.5 0-2.5-2-4.5-4.5-4.5-2.3 0-4.6 2-4.5 4.5.2 2.4 2 4.5 4.5 4.5zM150.7 48.7c2.4 0 4.7-2.1 4.5-4.5 0-2.5-2-4.5-4.5-4.5-2.3 0-4.6 2-4.5 4.5.2 2.4 2 4.5 4.5 4.5zM200 69.7c2.3 0 4.6-2.1 4.5-4.5-.1-2.5-2-4.5-4.5-4.5-2.4 0-4.6 2-4.5 4.5 0 2.4 2 4.5 4.5 4.5zM213 61.7c2.3 0 4.6-2.1 4.5-4.5-.1-2.5-2-4.5-4.5-4.5-2.4 0-4.6 2-4.5 4.5 0 2.4 2 4.5 4.5 4.5zM312 27.7c2.3 0 4.6-2.1 4.5-4.5-.1-2.5-2-4.5-4.5-4.5-2.4 0-4.6 2-4.5 4.5 0 2.4 2 4.5 4.5 4.5zM325 40.7c2.3 0 4.6-2.1 4.5-4.5-.1-2.5-2-4.5-4.5-4.5-2.4 0-4.6 2-4.5 4.5 0 2.4 2 4.5 4.5 4.5zM68 69.7c2.3 0 4.6-2.1 4.5-4.5-.1-2.5-2-4.5-4.5-4.5-2.4 0-4.6 2-4.5 4.5 0 2.4 2 4.5 4.5 4.5zM117 52.7c2.3 0 4.6-2.1 4.5-4.5-.1-2.5-2-4.5-4.5-4.5-2.4 0-4.6 2-4.5 4.5 0 2.4 2 4.5 4.5 4.5zM228 55.7c2.3 0 4.6-2.1 4.5-4.5-.1-2.5-2-4.5-4.5-4.5-2.4 0-4.6 2-4.5 4.5 0 2.4 2 4.5 4.5 4.5zM297 24.7c2.3 0 4.6-2.1 4.5-4.5-.1-2.5-2-4.5-4.5-4.5-2.4 0-4.6 2-4.5 4.5 0 2.4 2 4.5 4.5 4.5zM378 49.7c2.3 0 4.6-2.1 4.5-4.5-.1-2.5-2-4.5-4.5-4.5-2.4 0-4.6 2-4.5 4.5 0 2.4 2 4.5 4.5 4.5z" class="st0"/></svg>